<svg class="map-overlay" version="1.1" xmlns="http://www.w3.org/2000/svg" xmlns:xlink="http://www.w3.org/1999/xlink" x="0px" y="0px" viewBox="0 0 1440 735" style="enable-background:new 0 0 1440 735;" xml:space="preserve" aria-label="Map of the Middle East">
          <a href="." id="Turkey" name="turkey" aria-label="Map region Turkey" class="overlay-group loaded bounced" data-region="turkey">
            <path id="turkey" class="country" d="M478.7,131.1l-3.6,3.9l7.5,5.7l2.1,2.5l-10.7,1.4l-3.9,1.8l8.9,1.8l-4.6,1.8h-3.6l-11.8-1.8 h-8.6l-8.2,2.1l-5.4-2.5l-5.7,2.1l-5-0.7l-8.2,8.9l-3.6,0.4v7.1l-1.1,3.6l18.5-2.1l-6.4,3.6l2.9,5.4l0.7,3.2l3.9,0.4l-0.4,3.6 l-6.8,1.4l3.6,3.9l6.1,3.2l-9.3,0.7l-7.1-6.8v6.8l-2.5,1.1l6.4,4.3l5-0.4l11.4,3.9l-0.4,5.4l-8.2,0.7l6.1,3.6v5.4l8.9,0.4l-6.8,5 l23.9-0.7l-9.3,3.2l-6.4,2.1l7.8,1.4l8.6-1.8l3.2,0.7l3.9,2.5h2.5l4.6,1.1v4.3l5,4.3l8.6,2.1l9.3-3.9l4.6,1.1h2.5l1.1-6.8v-4.6 l2.5-1.4c0,0,13.9,0,14.3,1.1l10,4.3l3.9,1.1l5.7,3.9l8.2,5.7l3.9,1.1l7.1-2.1h11.8l3.2-3.6l4.3,0.4l4.3-5l6.4-5.4 c0,0,5-3.2,6.8,0.4l5.4,2.5l6.1,2.5l3.9-0.7l3.9-2.5l2.1-3.2l3.6-2.5c0,0,8.9,2.9,5.4,6.4l-5.7,3.6l-5,4.6l4.3,3.2l-1.8,6.1 l7.1-0.4l3.6-3.2l1.8-5.4l5.7,0.7l-3.9-5.7l1.4-4.6l1.4-3.2l6.1,0.4l2.9,1.4l-1.1,2.5l10,0.7l2.9-2.1l6.4-0.4l3.6-2.9 c0,0,5-2.5,12.8,2.1l2.9,2.5l2.9-1.4l5.7,2.9l3.9-1.4l12.8-3.6l12.5-4.3c0,0,7.1-2.9,13.2-0.7l9.3-0.4l8.6-2.9l4.3-3.9l1.8,3.2 l0.7,3.9h3.6l6.1-6.4l13.2,0.7l7.5,0.7l5.7-1.4l5,0.7l2.5,5.4l7.5-2.9l2.5-1.8l-4.3-3.9v-3.6l-2.5-3.9l-6.1-1.8l4.3-5.4l2.5-3.6 l-4.6-0.4l-0.7-10.3l-2.9-7.1l-1.4-5h5l3.6-6.8l2.9-2.1l4.3,2.9l-9.3-7.8c0,0-3.9,1.1-8.6,0.7l-6.1-2.9l-1.8-5.4 c0,0,6.8-9.3-2.1-14.6l-2.9-3.6l-5-1.1l-5.7-5.4l-5-3.6l-6.1,3.9l-6.4-0.7l-6.1,1.1l-6.1-0.4l-16.4,8.2c0,0-7.8,3.2-12.1,4.3 c-4.3,1.1-16.1-4.3-16.1-4.3s-11.1-1.1-20.3,4.6c0,0-7.2-0.2-12.1-1.8c-2.8-0.9-4-3.8-5-3.3c-2.8,1.2-3.2,3.3-3.2,3.3l-19.3-8.6 c0,0-3.6,6.1-9.6,0.4c-1.5-1.4-2.9-7.5-5.7-6.4s-4.6,1.4-11.4-0.4c-6.8-1.8-6.1-5.7-6.1-5.7l-2.9-2.5c0,0-6.4,1.1-9.3,1.4 s-4.6,1.1-4.6,1.1l-7.8-0.4l-12.5-1.4l-9.6,3.2l-9.3,1.4l-9.3,5.4l-13.9,4.6c0,0-2.5,8.2-8.9,6.4c-6.4-1.8-14.3-3.2-14.3-3.2 L478.7,131.1z"></path>
            <ellipse id="turkey-shadow" class="shadow" cx="602.7" cy="205.4" rx="8.1" ry="1.7"></ellipse>
            <path id="turkey-pin" class="pushpin" d="M594.7,176.2c-4.6,4.7-4.6,12.4,0,17.2l7.7,7.9c0.4,0.4,1,0.4,1.3,0l7.7-7.9 c4.6-4.7,4.6-12.4,0-17.2C606.9,171.4,599.3,171.4,594.7,176.2z"></path>
            <g id="turkety-label">
              <g>
                <path class="label" d="M579.8,165h-2.5v-11.7h-4.4V151h11.4v2.3h-4.4V165z"></path>
                <path class="label" d="M592.1,154.4h2.4V165h-2.4v-1.7c-0.3,0.5-0.8,1-1.3,1.3s-1.2,0.6-2,0.6c-1.2,0-2.1-0.4-2.8-1.1s-1-1.7-1-3 v-6.7h2.4v6c0,0.8,0.2,1.5,0.6,1.9c0.4,0.4,0.9,0.7,1.7,0.7c0.7,0,1.3-0.2,1.7-0.7s0.7-1.1,0.7-1.9V154.4z"></path>
                <path class="label" d="M600.1,165h-2.4v-10.6h2.4v2.4c0.3-0.8,0.8-1.4,1.4-1.9c0.6-0.5,1.4-0.7,2.3-0.7v2.6h-0.1 c-0.5,0-1,0.1-1.5,0.3c-0.4,0.2-0.8,0.4-1.1,0.8s-0.6,0.8-0.7,1.3c-0.2,0.5-0.3,1.1-0.3,1.8V165z"></path>
                <path class="label" d="M615.8,165H613l-3.2-4.6l-1.5,1.5v3h-2.4v-14.6h2.4v8.7l4.4-4.7h2.9l-4.2,4.3L615.8,165z"></path>
                <path class="label" d="M619.9,162.5c0.5,0.5,1.2,0.7,2,0.7c0.6,0,1.1-0.1,1.6-0.3c0.4-0.2,0.9-0.5,1.3-0.9l1.4,1.3 c-0.5,0.6-1.1,1.1-1.8,1.4c-0.7,0.4-1.5,0.5-2.5,0.5c-0.8,0-1.5-0.1-2.1-0.4s-1.2-0.6-1.7-1.1c-0.5-0.5-0.9-1.1-1.1-1.7 c-0.3-0.7-0.4-1.4-0.4-2.2c0-0.8,0.1-1.5,0.4-2.1c0.3-0.7,0.6-1.2,1.1-1.8s1-0.9,1.6-1.2c0.6-0.3,1.3-0.4,2.1-0.4 c0.8,0,1.6,0.2,2.2,0.5c0.6,0.3,1.2,0.7,1.6,1.2c0.4,0.5,0.7,1.1,0.9,1.8s0.3,1.4,0.3,2.2c0,0.1,0,0.2,0,0.3s0,0.2,0,0.3h-7.8 C619,161.4,619.3,162.1,619.9,162.5z M624.3,158.9c0-0.4-0.1-0.8-0.3-1.1c-0.1-0.3-0.3-0.6-0.5-0.9c-0.2-0.2-0.5-0.4-0.8-0.6 c-0.3-0.1-0.7-0.2-1.1-0.2c-0.7,0-1.4,0.3-1.9,0.8c-0.5,0.5-0.8,1.2-0.9,2H624.3z"></path>
                <path class="label" d="M634.2,165.3c-0.2,0.5-0.4,1-0.7,1.4c-0.2,0.4-0.5,0.7-0.8,0.9c-0.3,0.2-0.6,0.4-0.9,0.5 c-0.3,0.1-0.7,0.2-1.1,0.2c-0.5,0-1-0.1-1.4-0.2c-0.4-0.1-0.8-0.3-1.1-0.5l0.8-1.8c0.2,0.1,0.5,0.2,0.7,0.3s0.5,0.1,0.7,0.1 c0.3,0,0.6-0.1,0.9-0.3s0.4-0.5,0.6-1l-4.4-10.5h2.6l3,7.8l2.7-7.8h2.5L634.2,165.3z"></path>
              </g>
              <g>
                <path class="label" d="M579.8,165h-2.5v-11.7h-4.4V151h11.4v2.3h-4.4V165z"></path>
                <path class="label" d="M592.1,154.4h2.4V165h-2.4v-1.7c-0.3,0.5-0.8,1-1.3,1.3s-1.2,0.6-2,0.6c-1.2,0-2.1-0.4-2.8-1.1s-1-1.7-1-3 v-6.7h2.4v6c0,0.8,0.2,1.5,0.6,1.9c0.4,0.4,0.9,0.7,1.7,0.7c0.7,0,1.3-0.2,1.7-0.7s0.7-1.1,0.7-1.9V154.4z"></path>
                <path class="label" d="M600.1,165h-2.4v-10.6h2.4v2.4c0.3-0.8,0.8-1.4,1.4-1.9c0.6-0.5,1.4-0.7,2.3-0.7v2.6h-0.1 c-0.5,0-1,0.1-1.5,0.3c-0.4,0.2-0.8,0.4-1.1,0.8s-0.6,0.8-0.7,1.3c-0.2,0.5-0.3,1.1-0.3,1.8V165z"></path>
                <path class="label" d="M615.8,165H613l-3.2-4.6l-1.5,1.5v3h-2.4v-14.6h2.4v8.7l4.4-4.7h2.9l-4.2,4.3L615.8,165z"></path>
                <path class="label" d="M619.9,162.5c0.5,0.5,1.2,0.7,2,0.7c0.6,0,1.1-0.1,1.6-0.3c0.4-0.2,0.9-0.5,1.3-0.9l1.4,1.3 c-0.5,0.6-1.1,1.1-1.8,1.4c-0.7,0.4-1.5,0.5-2.5,0.5c-0.8,0-1.5-0.1-2.1-0.4s-1.2-0.6-1.7-1.1c-0.5-0.5-0.9-1.1-1.1-1.7 c-0.3-0.7-0.4-1.4-0.4-2.2c0-0.8,0.1-1.5,0.4-2.1c0.3-0.7,0.6-1.2,1.1-1.8s1-0.9,1.6-1.2c0.6-0.3,1.3-0.4,2.1-0.4 c0.8,0,1.6,0.2,2.2,0.5c0.6,0.3,1.2,0.7,1.6,1.2c0.4,0.5,0.7,1.1,0.9,1.8s0.3,1.4,0.3,2.2c0,0.1,0,0.2,0,0.3s0,0.2,0,0.3h-7.8 C619,161.4,619.3,162.1,619.9,162.5z M624.3,158.9c0-0.4-0.1-0.8-0.3-1.1c-0.1-0.3-0.3-0.6-0.5-0.9c-0.2-0.2-0.5-0.4-0.8-0.6 c-0.3-0.1-0.7-0.2-1.1-0.2c-0.7,0-1.4,0.3-1.9,0.8c-0.5,0.5-0.8,1.2-0.9,2H624.3z"></path>
                <path class="label" d="M634.2,165.3c-0.2,0.5-0.4,1-0.7,1.4c-0.2,0.4-0.5,0.7-0.8,0.9c-0.3,0.2-0.6,0.4-0.9,0.5 c-0.3,0.1-0.7,0.2-1.1,0.2c-0.5,0-1-0.1-1.4-0.2c-0.4-0.1-0.8-0.3-1.1-0.5l0.8-1.8c0.2,0.1,0.5,0.2,0.7,0.3s0.5,0.1,0.7,0.1 c0.3,0,0.6-0.1,0.9-0.3s0.4-0.5,0.6-1l-4.4-10.5h2.6l3,7.8l2.7-7.8h2.5L634.2,165.3z"></path>
              </g>
            </g>
          </a>
          <a href="." id="Egypt" name="egypt" aria-label="Map region Egypt" class="overlay-group loaded bounced" data-region="egypt">
            <path id="egypt" class="country" d="M391.9,337.4l-2.1,3.2l-3.6,2.1l0.7,4.3l2.5,7.8l-2.1,8.2l-2.9,1.4l-1.8,4.6l2.5,4.6v3.6 l1.4,3.2v2.9l2.1,6.1v155.9h176.2l8.6,5.4l9.6-0.4l3.6-10l11.8-1.4l5-12.5l5.7,1.8l8.9-7.8c0,0-5.7-6.8-2.5-18.2 c0,0,13.2,6.4-2.1-6.1l-5.7-6.4l-13.2-25l-9.6-16.8l-3.6-3.6v-3.6l-9.3-17.5c0,0,5-3.6-4.6-10.3l-4.6-2.9l0.7-2.5l-5.4-4.3 l-0.4-3.2l-5.4-7.5c0,0,3.6-5-3.2-9.3c0,0-3.9-7.1,2.9-8.6c0,0,2.9,0.7,3.2,6.1l2.5,6.1l7.5,5.4l0.4,5.7l2.1,4.3l4.3,5.7l4.3,3.9 c0,0,8.6,11.1,12.8,6.8l2.9-2.9c0,0-1.8-7.5,0.7-10.7c0,0,4.6-3.9,5.4-16.4l5-5l-15.7-40l-11.1,5.7l-5.7-1.4l-5.7,1.4 c0,0-10,5.4-18.2-3.2l-8.9-5.7c0,0-6.7-0.9-14.6-2.9c-4.3-1.1-4.8,5.3-7.1,5.4c-7.1,0.2-11.3-0.9-16.4,1.8 c-5.8,3.1-12.5,9.9-21,10.7c-6,0.5-9.8-6.3-13.6-6.1c-14.3,1.1-13.6-3.2-13.6-3.2s-9.3,0.7-19.3-3.6c-10-4.3-23.9-5.4-23.9-5.4 S398.4,344.5,391.9,337.4z"></path>
            <ellipse id="egypt-shadow" class="shadow" cx="524.6" cy="488.8" rx="8.1" ry="1.7"></ellipse>
            <g id="egypt-label">
              <g>
                <path class="label" d="M506.6,436.6h-7.9v3.6h7v2.2h-7v3.7h8v2.2h-10.5v-14h10.4V436.6z"></path>
                <path class="label" d="M518.2,450.3c-1,0.9-2.4,1.3-4.2,1.3c-1.8,0-3.3-0.4-4.7-1.3l0.9-1.8c0.6,0.3,1.1,0.6,1.8,0.8 c0.6,0.2,1.3,0.3,2,0.3c1.1,0,1.9-0.3,2.5-0.8c0.6-0.5,0.9-1.4,0.9-2.4v-0.8c-0.4,0.6-1,1-1.5,1.4c-0.6,0.4-1.3,0.5-2.2,0.5 c-0.6,0-1.2-0.1-1.8-0.3c-0.6-0.2-1.1-0.5-1.5-1c-0.4-0.4-0.8-0.9-1.1-1.6s-0.4-1.3-0.4-2.1s0.1-1.5,0.4-2.1 c0.3-0.6,0.6-1.1,1.1-1.6c0.4-0.4,1-0.8,1.5-1c0.6-0.2,1.2-0.3,1.8-0.3c0.9,0,1.6,0.2,2.2,0.5c0.6,0.4,1.1,0.8,1.5,1.3v-1.6h2.4 v8.4C519.7,448.1,519.2,449.5,518.2,450.3z M517.1,441.4c-0.2-0.4-0.4-0.7-0.7-0.9c-0.3-0.3-0.6-0.4-1-0.6 c-0.4-0.1-0.8-0.2-1.2-0.2c-0.4,0-0.8,0.1-1.2,0.2c-0.4,0.1-0.7,0.3-1,0.6c-0.3,0.3-0.5,0.6-0.6,0.9s-0.2,0.8-0.2,1.2 c0,0.4,0.1,0.8,0.2,1.2c0.2,0.4,0.4,0.7,0.6,0.9c0.3,0.3,0.6,0.5,1,0.6s0.8,0.2,1.2,0.2c0.4,0,0.8-0.1,1.2-0.2 c0.4-0.1,0.7-0.3,1-0.6c0.3-0.3,0.5-0.6,0.7-0.9c0.2-0.4,0.2-0.7,0.2-1.2C517.3,442.2,517.2,441.8,517.1,441.4z"></path>
                <path class="label" d="M528.4,448.7c-0.2,0.5-0.4,1-0.7,1.4c-0.2,0.4-0.5,0.7-0.8,0.9c-0.3,0.2-0.6,0.4-0.9,0.5 c-0.3,0.1-0.7,0.2-1.1,0.2c-0.5,0-1-0.1-1.4-0.2c-0.4-0.1-0.8-0.3-1.1-0.5l0.8-1.8c0.2,0.1,0.5,0.2,0.7,0.3s0.5,0.1,0.7,0.1 c0.3,0,0.6-0.1,0.9-0.3s0.4-0.5,0.6-1l-4.4-10.5h2.6l3,7.8l2.7-7.8h2.5L528.4,448.7z"></path>
                <path class="label" d="M545.1,445.5c-0.3,0.7-0.6,1.3-1.1,1.7s-1,0.8-1.6,1.1c-0.6,0.2-1.2,0.4-1.8,0.4c-0.9,0-1.6-0.2-2.2-0.6 s-1-0.8-1.4-1.3l0,4.8h-2.4v-13.8h2.4v1.8c0.4-0.6,0.9-1,1.4-1.4s1.3-0.6,2.1-0.6c0.6,0,1.2,0.1,1.8,0.4s1.1,0.6,1.6,1.1 c0.5,0.5,0.8,1,1.1,1.7s0.4,1.5,0.4,2.3S545.4,444.8,545.1,445.5z M542.9,441.7c-0.2-0.4-0.4-0.8-0.6-1.1s-0.6-0.5-1-0.7 c-0.4-0.2-0.8-0.2-1.2-0.2c-0.4,0-0.8,0.1-1.2,0.2c-0.4,0.2-0.7,0.4-1,0.7c-0.3,0.3-0.5,0.7-0.7,1.1c-0.2,0.4-0.2,0.9-0.2,1.4 c0,0.5,0.1,1,0.2,1.4c0.2,0.4,0.4,0.8,0.7,1.1c0.3,0.3,0.6,0.5,1,0.7c0.4,0.2,0.8,0.2,1.2,0.2c0.4,0,0.8-0.1,1.2-0.2 s0.7-0.4,1-0.7s0.5-0.7,0.6-1.1c0.2-0.4,0.2-0.9,0.2-1.4C543.1,442.6,543,442.1,542.9,441.7z"></path>
                <path class="label" d="M551,445.1c0,0.5,0.1,0.8,0.3,1c0.2,0.2,0.5,0.3,1,0.3c0.5,0,1-0.1,1.5-0.4v2c-0.3,0.2-0.6,0.3-1,0.4 s-0.7,0.1-1.2,0.1c-0.4,0-0.8-0.1-1.2-0.2c-0.4-0.1-0.7-0.3-1-0.5c-0.3-0.2-0.5-0.6-0.6-1c-0.1-0.4-0.2-0.9-0.2-1.5v-5.6h-1.3 v-2.1h1.3v-2.9h2.4v2.9h2.8v2.1H551V445.1z"></path>
              </g>
              <g>
                <path class="label" d="M506.6,436.6h-7.9v3.6h7v2.2h-7v3.7h8v2.2h-10.5v-14h10.4V436.6z"></path>
                <path class="label" d="M518.2,450.3c-1,0.9-2.4,1.3-4.2,1.3c-1.8,0-3.3-0.4-4.7-1.3l0.9-1.8c0.6,0.3,1.1,0.6,1.8,0.8 c0.6,0.2,1.3,0.3,2,0.3c1.1,0,1.9-0.3,2.5-0.8c0.6-0.5,0.9-1.4,0.9-2.4v-0.8c-0.4,0.6-1,1-1.5,1.4c-0.6,0.4-1.3,0.5-2.2,0.5 c-0.6,0-1.2-0.1-1.8-0.3c-0.6-0.2-1.1-0.5-1.5-1c-0.4-0.4-0.8-0.9-1.1-1.6s-0.4-1.3-0.4-2.1s0.1-1.5,0.4-2.1 c0.3-0.6,0.6-1.1,1.1-1.6c0.4-0.4,1-0.8,1.5-1c0.6-0.2,1.2-0.3,1.8-0.3c0.9,0,1.6,0.2,2.2,0.5c0.6,0.4,1.1,0.8,1.5,1.3v-1.6h2.4 v8.4C519.7,448.1,519.2,449.5,518.2,450.3z M517.1,441.4c-0.2-0.4-0.4-0.7-0.7-0.9c-0.3-0.3-0.6-0.4-1-0.6 c-0.4-0.1-0.8-0.2-1.2-0.2c-0.4,0-0.8,0.1-1.2,0.2c-0.4,0.1-0.7,0.3-1,0.6c-0.3,0.3-0.5,0.6-0.6,0.9s-0.2,0.8-0.2,1.2 c0,0.4,0.1,0.8,0.2,1.2c0.2,0.4,0.4,0.7,0.6,0.9c0.3,0.3,0.6,0.5,1,0.6s0.8,0.2,1.2,0.2c0.4,0,0.8-0.1,1.2-0.2 c0.4-0.1,0.7-0.3,1-0.6c0.3-0.3,0.5-0.6,0.7-0.9c0.2-0.4,0.2-0.7,0.2-1.2C517.3,442.2,517.2,441.8,517.1,441.4z"></path>
                <path class="label" d="M528.4,448.7c-0.2,0.5-0.4,1-0.7,1.4c-0.2,0.4-0.5,0.7-0.8,0.9c-0.3,0.2-0.6,0.4-0.9,0.5 c-0.3,0.1-0.7,0.2-1.1,0.2c-0.5,0-1-0.1-1.4-0.2c-0.4-0.1-0.8-0.3-1.1-0.5l0.8-1.8c0.2,0.1,0.5,0.2,0.7,0.3s0.5,0.1,0.7,0.1 c0.3,0,0.6-0.1,0.9-0.3s0.4-0.5,0.6-1l-4.4-10.5h2.6l3,7.8l2.7-7.8h2.5L528.4,448.7z"></path>
                <path class="label" d="M545.1,445.5c-0.3,0.7-0.6,1.3-1.1,1.7s-1,0.8-1.6,1.1c-0.6,0.2-1.2,0.4-1.8,0.4c-0.9,0-1.6-0.2-2.2-0.6 s-1-0.8-1.4-1.3l0,4.8h-2.4v-13.8h2.4v1.8c0.4-0.6,0.9-1,1.4-1.4s1.3-0.6,2.1-0.6c0.6,0,1.2,0.1,1.8,0.4s1.1,0.6,1.6,1.1 c0.5,0.5,0.8,1,1.1,1.7s0.4,1.5,0.4,2.3S545.4,444.8,545.1,445.5z M542.9,441.7c-0.2-0.4-0.4-0.8-0.6-1.1s-0.6-0.5-1-0.7 c-0.4-0.2-0.8-0.2-1.2-0.2c-0.4,0-0.8,0.1-1.2,0.2c-0.4,0.2-0.7,0.4-1,0.7c-0.3,0.3-0.5,0.7-0.7,1.1c-0.2,0.4-0.2,0.9-0.2,1.4 c0,0.5,0.1,1,0.2,1.4c0.2,0.4,0.4,0.8,0.7,1.1c0.3,0.3,0.6,0.5,1,0.7c0.4,0.2,0.8,0.2,1.2,0.2c0.4,0,0.8-0.1,1.2-0.2 s0.7-0.4,1-0.7s0.5-0.7,0.6-1.1c0.2-0.4,0.2-0.9,0.2-1.4C543.1,442.6,543,442.1,542.9,441.7z"></path>
                <path class="label" d="M551,445.1c0,0.5,0.1,0.8,0.3,1c0.2,0.2,0.5,0.3,1,0.3c0.5,0,1-0.1,1.5-0.4v2c-0.3,0.2-0.6,0.3-1,0.4 s-0.7,0.1-1.2,0.1c-0.4,0-0.8-0.1-1.2-0.2c-0.4-0.1-0.7-0.3-1-0.5c-0.3-0.2-0.5-0.6-0.6-1c-0.1-0.4-0.2-0.9-0.2-1.5v-5.6h-1.3 v-2.1h1.3v-2.9h2.4v2.9h2.8v2.1H551V445.1z"></path>
              </g>
            </g>
            <path id="egypt-label_1_" class="pushpin" d="M516.5,459.6c-4.6,4.7-4.6,12.4,0,17.2l7.7,7.9c0.4,0.4,1,0.4,1.3,0l7.7-7.9 c4.6-4.7,4.6-12.4,0-17.2C528.7,454.9,521.1,454.9,516.5,459.6z"></path>
          </a>
          <a href="." id="Levant" name="levant" aria-label="Map region Levant" class="overlay-group loaded bounced" data-region="levant">
            <path id="levant" class="country" d="M589.9,342.1l1.5-1.5l2.6-3c0,0,6.5-8.1,9.5-25.4c0.1-0.5,0.2-1,0.2-1.5l2.1,1.4l0.2-2.6 l0.7-3.6l1.7-1.7l0.7-3.6l1-3.6l2.6-2.6l2.1-5l2.4-2.6c0,0,3.3-2.1,0.7-4.8l1.4-1.7l0.7-2.4l2.1-0.2l1-1.9c0,0,3.6,1.2,2.9-3.6 l2.6,0.2h2.1l2.1-1.2l3.1,1.4l-0.5,1.9l2.6,2.6l1.2,3.8l-1.7,4.6l-2.2-0.9l-3.3,2.4l2.7,2.4l-4.3-0.2l-3.5,0.6l-2.5,3.5l2.9,1 l-2.1,2.1l-1.3,1.6l-1.7,1.1l-0.5,1.9l0.8,2.4l1,4.9c0,0-1,4.4-4.8,5c-1,0.2,7.6-1,7.1,2.4c-0.7,4.6,5.2,2.4,5.2,2.4l12.6,4 c0,0,38.3-20.5,42.6-22.8l6.2,18.3l-2.6,1.1l1.5,3.8l4.8-1.3l1,2.9l-6.3,5l-43.5,10.8l21.8,21.2l-7.7,4.1l-3.3,7.1l-15.9,2.6 l-5.4,7.8l-9.2,6.9l-24-3.8l-16.2-42L589.9,342.1z"></path>
            <ellipse id="levant-shadow" class="shadow" cx="621.4" cy="377.8" rx="8.1" ry="1.7"></ellipse>
            <path id="levant-pin" class="pushpin" d="M613.3,348.6c-4.6,4.7-4.6,12.4,0,17.2l7.7,7.9c0.4,0.4,1,0.4,1.3,0l7.7-7.9 c4.6-4.7,4.6-12.4,0-17.2S617.9,343.8,613.3,348.6z"></path>
            <g id="levant-label">
              <g>
                <path class="label" d="M590.1,323.2h2.4V335h7.4v2.2h-9.8V323.2z"></path>
                <path class="label" d="M604.9,334.8c0.5,0.5,1.2,0.7,2,0.7c0.6,0,1.1-0.1,1.6-0.3c0.4-0.2,0.9-0.5,1.3-0.9l1.4,1.3 c-0.5,0.6-1.1,1.1-1.8,1.4c-0.7,0.4-1.5,0.5-2.5,0.5c-0.8,0-1.5-0.1-2.1-0.4s-1.2-0.6-1.7-1.1c-0.5-0.5-0.9-1.1-1.1-1.7 c-0.3-0.7-0.4-1.4-0.4-2.2c0-0.8,0.1-1.5,0.4-2.1c0.3-0.7,0.6-1.2,1.1-1.8s1-0.9,1.6-1.2c0.6-0.3,1.3-0.4,2.1-0.4 c0.8,0,1.6,0.2,2.2,0.5c0.6,0.3,1.2,0.7,1.6,1.2c0.4,0.5,0.7,1.1,0.9,1.8s0.3,1.4,0.3,2.2c0,0.1,0,0.2,0,0.3s0,0.2,0,0.3h-7.8 C604,333.7,604.3,334.3,604.9,334.8z M609.2,331.2c0-0.4-0.1-0.8-0.3-1.1c-0.1-0.3-0.3-0.6-0.5-0.9c-0.2-0.2-0.5-0.4-0.8-0.6 c-0.3-0.1-0.7-0.2-1.1-0.2c-0.7,0-1.4,0.3-1.9,0.8c-0.5,0.5-0.8,1.2-0.9,2H609.2z"></path>
                <path class="label" d="M620.9,326.7h2.5l-4.3,10.6h-2.2l-4.3-10.6h2.6l2.8,7.8L620.9,326.7z"></path>
                <path class="label" d="M631.4,337.2v-1.3c-0.4,0.4-0.8,0.8-1.4,1.1s-1.2,0.4-2,0.4c-0.5,0-1-0.1-1.4-0.2 c-0.5-0.1-0.9-0.3-1.2-0.6c-0.3-0.3-0.6-0.6-0.8-1c-0.2-0.4-0.3-0.9-0.3-1.4v0c0-0.6,0.1-1.1,0.3-1.5c0.2-0.4,0.5-0.8,0.9-1.1 c0.4-0.3,0.8-0.5,1.4-0.6c0.5-0.1,1.1-0.2,1.7-0.2c0.6,0,1.2,0,1.6,0.1s0.9,0.2,1.3,0.3v-0.3c0-0.7-0.2-1.3-0.7-1.7 c-0.4-0.4-1.1-0.6-1.9-0.6c-0.6,0-1.1,0.1-1.6,0.2s-0.9,0.3-1.4,0.5l-0.7-1.9c0.6-0.3,1.2-0.5,1.8-0.6c0.6-0.2,1.4-0.2,2.2-0.2 c1.6,0,2.7,0.4,3.5,1.2c0.8,0.8,1.1,1.9,1.1,3.3v6.3H631.4z M631.5,332.7c-0.3-0.1-0.7-0.2-1.1-0.3c-0.4-0.1-0.9-0.1-1.3-0.1 c-0.8,0-1.4,0.1-1.8,0.4s-0.6,0.7-0.6,1.3v0c0,0.5,0.2,0.9,0.6,1.2c0.4,0.3,0.9,0.4,1.5,0.4c0.4,0,0.8-0.1,1.1-0.2 c0.3-0.1,0.6-0.3,0.9-0.5c0.3-0.2,0.4-0.4,0.6-0.7s0.2-0.6,0.2-0.9V332.7z"></path>
                <path class="label" d="M639.1,337.2h-2.4v-10.6h2.4v1.7c0.2-0.3,0.4-0.5,0.6-0.7s0.4-0.4,0.7-0.6s0.6-0.3,0.9-0.4 c0.3-0.1,0.7-0.2,1.1-0.2c1.2,0,2.1,0.4,2.8,1.1c0.7,0.7,1,1.7,1,3v6.7h-2.4v-6c0-0.8-0.2-1.5-0.6-1.9s-0.9-0.7-1.7-0.7 c-0.7,0-1.3,0.2-1.7,0.7c-0.4,0.5-0.7,1.1-0.7,1.9V337.2z"></path>
                <path class="label" d="M652,333.9c0,0.5,0.1,0.8,0.3,1c0.2,0.2,0.5,0.3,1,0.3c0.5,0,1-0.1,1.5-0.4v2c-0.3,0.2-0.6,0.3-1,0.4 s-0.7,0.1-1.2,0.1c-0.4,0-0.8-0.1-1.2-0.2c-0.4-0.1-0.7-0.3-1-0.5c-0.3-0.2-0.5-0.6-0.6-1c-0.1-0.4-0.2-0.9-0.2-1.5v-5.6h-1.3 v-2.1h1.3v-2.9h2.4v2.9h2.8v2.1H652V333.9z"></path>
              </g>
              <g>
                <path class="label" d="M590.1,323.2h2.4V335h7.4v2.2h-9.8V323.2z"></path>
                <path class="label" d="M604.9,334.8c0.5,0.5,1.2,0.7,2,0.7c0.6,0,1.1-0.1,1.6-0.3c0.4-0.2,0.9-0.5,1.3-0.9l1.4,1.3 c-0.5,0.6-1.1,1.1-1.8,1.4c-0.7,0.4-1.5,0.5-2.5,0.5c-0.8,0-1.5-0.1-2.1-0.4s-1.2-0.6-1.7-1.1c-0.5-0.5-0.9-1.1-1.1-1.7 c-0.3-0.7-0.4-1.4-0.4-2.2c0-0.8,0.1-1.5,0.4-2.1c0.3-0.7,0.6-1.2,1.1-1.8s1-0.9,1.6-1.2c0.6-0.3,1.3-0.4,2.1-0.4 c0.8,0,1.6,0.2,2.2,0.5c0.6,0.3,1.2,0.7,1.6,1.2c0.4,0.5,0.7,1.1,0.9,1.8s0.3,1.4,0.3,2.2c0,0.1,0,0.2,0,0.3s0,0.2,0,0.3h-7.8 C604,333.7,604.3,334.3,604.9,334.8z M609.2,331.2c0-0.4-0.1-0.8-0.3-1.1c-0.1-0.3-0.3-0.6-0.5-0.9c-0.2-0.2-0.5-0.4-0.8-0.6 c-0.3-0.1-0.7-0.2-1.1-0.2c-0.7,0-1.4,0.3-1.9,0.8c-0.5,0.5-0.8,1.2-0.9,2H609.2z"></path>
                <path class="label" d="M620.9,326.7h2.5l-4.3,10.6h-2.2l-4.3-10.6h2.6l2.8,7.8L620.9,326.7z"></path>
                <path class="label" d="M631.4,337.2v-1.3c-0.4,0.4-0.8,0.8-1.4,1.1s-1.2,0.4-2,0.4c-0.5,0-1-0.1-1.4-0.2 c-0.5-0.1-0.9-0.3-1.2-0.6c-0.3-0.3-0.6-0.6-0.8-1c-0.2-0.4-0.3-0.9-0.3-1.4v0c0-0.6,0.1-1.1,0.3-1.5c0.2-0.4,0.5-0.8,0.9-1.1 c0.4-0.3,0.8-0.5,1.4-0.6c0.5-0.1,1.1-0.2,1.7-0.2c0.6,0,1.2,0,1.6,0.1s0.9,0.2,1.3,0.3v-0.3c0-0.7-0.2-1.3-0.7-1.7 c-0.4-0.4-1.1-0.6-1.9-0.6c-0.6,0-1.1,0.1-1.6,0.2s-0.9,0.3-1.4,0.5l-0.7-1.9c0.6-0.3,1.2-0.5,1.8-0.6c0.6-0.2,1.4-0.2,2.2-0.2 c1.6,0,2.7,0.4,3.5,1.2c0.8,0.8,1.1,1.9,1.1,3.3v6.3H631.4z M631.5,332.7c-0.3-0.1-0.7-0.2-1.1-0.3c-0.4-0.1-0.9-0.1-1.3-0.1 c-0.8,0-1.4,0.1-1.8,0.4s-0.6,0.7-0.6,1.3v0c0,0.5,0.2,0.9,0.6,1.2c0.4,0.3,0.9,0.4,1.5,0.4c0.4,0,0.8-0.1,1.1-0.2 c0.3-0.1,0.6-0.3,0.9-0.5c0.3-0.2,0.4-0.4,0.6-0.7s0.2-0.6,0.2-0.9V332.7z"></path>
                <path class="label" d="M639.1,337.2h-2.4v-10.6h2.4v1.7c0.2-0.3,0.4-0.5,0.6-0.7s0.4-0.4,0.7-0.6s0.6-0.3,0.9-0.4 c0.3-0.1,0.7-0.2,1.1-0.2c1.2,0,2.1,0.4,2.8,1.1c0.7,0.7,1,1.7,1,3v6.7h-2.4v-6c0-0.8-0.2-1.5-0.6-1.9s-0.9-0.7-1.7-0.7 c-0.7,0-1.3,0.2-1.7,0.7c-0.4,0.5-0.7,1.1-0.7,1.9V337.2z"></path>
                <path class="label" d="M652,333.9c0,0.5,0.1,0.8,0.3,1c0.2,0.2,0.5,0.3,1,0.3c0.5,0,1-0.1,1.5-0.4v2c-0.3,0.2-0.6,0.3-1,0.4 s-0.7,0.1-1.2,0.1c-0.4,0-0.8-0.1-1.2-0.2c-0.4-0.1-0.7-0.3-1-0.5c-0.3-0.2-0.5-0.6-0.6-1c-0.1-0.4-0.2-0.9-0.2-1.5v-5.6h-1.3 v-2.1h1.3v-2.9h2.4v2.9h2.8v2.1H652V333.9z"></path>
              </g>
            </g>
          </a>
          <a href="." id="Syria" name="syria" aria-label="Map region Syria" class="overlay-group loaded bounced" data-region="syria">
            <path id="syria" class="country" d="M686.4,299.2l40.8-20.1l7.1-1.1l2.5-6l2.5-2.1c0,0-0.7-8.1,0-13.4c0.7-5.3,3.2-8.8,3.2-8.8 l-3.6-5.7l1.8-9.5l11.8-2.1l10-9.2l-0.7-3.9l-1.8-3.2l-4.3,3.9l-8.6,2.8l-9.3,0.4c-6.1-2.1-13.2,0.7-13.2,0.7l-12.5,4.2l-12.9,3.5 l-3.9,1.4l-5.7-2.8l-2.9,1.4l-2.9-2.5c-7.9-4.6-12.9-2.1-12.9-2.1l-3.6,2.8l-6.4,0.4l-2.9,2.1l-10-0.7l1.1-2.5l-2.9-1.4l-6.1-0.4 l-1.4,3.2l-1.4,4.6l3.9,5.7l-5.7-0.7l-1.8,5.3l-3.6,3.2l-7.1,0.4l-0.1,0.8l-0.2,2.4l-1.6,1.1L621,253l3.8,3l-0.8,3.1l1.4,2l-2.4,2 l1.1,4.2l1.1,3.8l1.1,1.6l2.6,0.2h2.1l2.1-1.2l3.1,1.4l-0.5,1.9l2.6,2.6l1.2,3.8l-1.7,4.6l-2.2-0.9l-3.3,2.4l2.7,2.4l-4.3-0.2 l-3.5,0.6l-2.5,3.5l2.9,0.9l-2.1,2l-1.3,1.6l-1.7,1.1l-0.5,1.9l0.8,2.4l1,4.9c0,0-1,4.3-4.8,4.9c-1,0.2,7.6-1,7.1,2.4 c-0.7,4.6,5.2,2.4,5.2,2.4l12.6,4c0,0,38.3-20.3,42.6-22.6"></path>
            <ellipse id="syria-shadow" class="shadow" cx="667.2" cy="298.9" rx="8.1" ry="1.7"></ellipse>
            <path id="syria-pin" class="pushpin" d="M659.1,269.7c-4.6,4.7-4.6,12.4,0,17.2l7.7,7.9c0.4,0.4,1,0.4,1.3,0l7.7-7.9 c4.6-4.7,4.6-12.4,0-17.2C671.3,265,663.7,265,659.1,269.7z"></path>
            <g id="syrial-label">
              <g>
                <path class="label" d="M644.2,248.5c0.1,0.2,0.3,0.4,0.5,0.6c0.2,0.2,0.6,0.3,1,0.5c0.4,0.1,1,0.3,1.7,0.5c0.7,0.2,1.4,0.4,2,0.6 c0.6,0.2,1,0.5,1.4,0.8c0.4,0.3,0.7,0.7,0.9,1.1c0.2,0.4,0.3,0.9,0.3,1.5c0,0.7-0.1,1.3-0.4,1.8c-0.2,0.5-0.6,1-1,1.3 c-0.4,0.4-1,0.6-1.6,0.8s-1.3,0.3-2,0.3c-1.1,0-2.1-0.2-3.1-0.5c-1-0.4-1.9-0.9-2.7-1.7l1.5-1.8c0.7,0.6,1.4,1,2.1,1.3 c0.7,0.3,1.5,0.5,2.4,0.5c0.8,0,1.4-0.2,1.8-0.5s0.7-0.8,0.7-1.3c0-0.3,0-0.5-0.1-0.7c-0.1-0.2-0.2-0.4-0.5-0.5 c-0.2-0.2-0.6-0.3-1-0.5c-0.4-0.1-0.9-0.3-1.6-0.5c-0.7-0.2-1.4-0.4-2-0.6c-0.6-0.2-1.1-0.5-1.5-0.8c-0.4-0.3-0.7-0.7-0.9-1.2 c-0.2-0.5-0.3-1-0.3-1.7c0-0.6,0.1-1.2,0.4-1.7s0.6-0.9,1-1.3s0.9-0.6,1.5-0.8s1.2-0.3,1.9-0.3c1,0,1.9,0.2,2.8,0.5 c0.8,0.3,1.6,0.7,2.3,1.3l-1.3,1.9c-0.6-0.5-1.3-0.8-1.9-1.1c-0.6-0.2-1.3-0.4-1.9-0.4c-0.7,0-1.3,0.2-1.7,0.5 c-0.4,0.3-0.6,0.7-0.6,1.2C644.1,248.1,644.1,248.3,644.2,248.5z"></path>
                <path class="label" d="M659.9,258.4c-0.2,0.5-0.4,1-0.7,1.4c-0.2,0.4-0.5,0.7-0.8,0.9c-0.3,0.2-0.6,0.4-0.9,0.5 c-0.3,0.1-0.7,0.2-1.1,0.2c-0.5,0-1-0.1-1.4-0.2c-0.4-0.1-0.8-0.3-1.1-0.5l0.8-1.8c0.2,0.1,0.5,0.2,0.7,0.3s0.5,0.1,0.7,0.1 c0.3,0,0.6-0.1,0.9-0.3s0.4-0.5,0.6-1l-4.4-10.5h2.6l3,7.8l2.7-7.8h2.5L659.9,258.4z"></path>
                <path class="label" d="M668.6,258.1h-2.4v-10.6h2.4v2.4c0.3-0.8,0.8-1.4,1.4-1.9c0.6-0.5,1.4-0.7,2.3-0.7v2.6h-0.1 c-0.5,0-1,0.1-1.5,0.3c-0.4,0.2-0.8,0.4-1.1,0.8s-0.6,0.8-0.7,1.3c-0.2,0.5-0.3,1.1-0.3,1.8V258.1z"></path>
                <path class="label" d="M674.5,246v-2.3h2.6v2.3H674.5z M674.6,258.1v-10.6h2.4v10.6H674.6z"></path>
                <path class="label" d="M686.6,258.1v-1.3c-0.4,0.4-0.8,0.8-1.4,1.1s-1.2,0.4-2,0.4c-0.5,0-1-0.1-1.4-0.2 c-0.5-0.1-0.9-0.3-1.2-0.6c-0.3-0.3-0.6-0.6-0.8-1c-0.2-0.4-0.3-0.9-0.3-1.4v0c0-0.6,0.1-1.1,0.3-1.5c0.2-0.4,0.5-0.8,0.9-1.1 c0.4-0.3,0.8-0.5,1.4-0.6c0.5-0.1,1.1-0.2,1.7-0.2c0.6,0,1.2,0,1.6,0.1s0.9,0.2,1.3,0.3v-0.3c0-0.7-0.2-1.3-0.7-1.7 c-0.4-0.4-1.1-0.6-1.9-0.6c-0.6,0-1.1,0.1-1.6,0.2s-0.9,0.3-1.4,0.5l-0.7-1.9c0.6-0.3,1.2-0.5,1.8-0.6c0.6-0.2,1.4-0.2,2.2-0.2 c1.6,0,2.7,0.4,3.5,1.2c0.8,0.8,1.1,1.9,1.1,3.3v6.3H686.6z M686.7,253.7c-0.3-0.1-0.7-0.2-1.1-0.3c-0.4-0.1-0.9-0.1-1.3-0.1 c-0.8,0-1.4,0.1-1.8,0.4s-0.6,0.7-0.6,1.3v0c0,0.5,0.2,0.9,0.6,1.2c0.4,0.3,0.9,0.4,1.5,0.4c0.4,0,0.8-0.1,1.1-0.2 c0.3-0.1,0.6-0.3,0.9-0.5c0.3-0.2,0.4-0.4,0.6-0.7s0.2-0.6,0.2-0.9V253.7z"></path>
              </g>
              <g>
                <path class="label" d="M644.2,248.5c0.1,0.2,0.3,0.4,0.5,0.6c0.2,0.2,0.6,0.3,1,0.5c0.4,0.1,1,0.3,1.7,0.5c0.7,0.2,1.4,0.4,2,0.6 c0.6,0.2,1,0.5,1.4,0.8c0.4,0.3,0.7,0.7,0.9,1.1c0.2,0.4,0.3,0.9,0.3,1.5c0,0.7-0.1,1.3-0.4,1.8c-0.2,0.5-0.6,1-1,1.3 c-0.4,0.4-1,0.6-1.6,0.8s-1.3,0.3-2,0.3c-1.1,0-2.1-0.2-3.1-0.5c-1-0.4-1.9-0.9-2.7-1.7l1.5-1.8c0.7,0.6,1.4,1,2.1,1.3 c0.7,0.3,1.5,0.5,2.4,0.5c0.8,0,1.4-0.2,1.8-0.5s0.7-0.8,0.7-1.3c0-0.3,0-0.5-0.1-0.7c-0.1-0.2-0.2-0.4-0.5-0.5 c-0.2-0.2-0.6-0.3-1-0.5c-0.4-0.1-0.9-0.3-1.6-0.5c-0.7-0.2-1.4-0.4-2-0.6c-0.6-0.2-1.1-0.5-1.5-0.8c-0.4-0.3-0.7-0.7-0.9-1.2 c-0.2-0.5-0.3-1-0.3-1.7c0-0.6,0.1-1.2,0.4-1.7s0.6-0.9,1-1.3s0.9-0.6,1.5-0.8s1.2-0.3,1.9-0.3c1,0,1.9,0.2,2.8,0.5 c0.8,0.3,1.6,0.7,2.3,1.3l-1.3,1.9c-0.6-0.5-1.3-0.8-1.9-1.1c-0.6-0.2-1.3-0.4-1.9-0.4c-0.7,0-1.3,0.2-1.7,0.5 c-0.4,0.3-0.6,0.7-0.6,1.2C644.1,248.1,644.1,248.3,644.2,248.5z"></path>
                <path class="label" d="M659.9,258.4c-0.2,0.5-0.4,1-0.7,1.4c-0.2,0.4-0.5,0.7-0.8,0.9c-0.3,0.2-0.6,0.4-0.9,0.5 c-0.3,0.1-0.7,0.2-1.1,0.2c-0.5,0-1-0.1-1.4-0.2c-0.4-0.1-0.8-0.3-1.1-0.5l0.8-1.8c0.2,0.1,0.5,0.2,0.7,0.3s0.5,0.1,0.7,0.1 c0.3,0,0.6-0.1,0.9-0.3s0.4-0.5,0.6-1l-4.4-10.5h2.6l3,7.8l2.7-7.8h2.5L659.9,258.4z"></path>
                <path class="label" d="M668.6,258.1h-2.4v-10.6h2.4v2.4c0.3-0.8,0.8-1.4,1.4-1.9c0.6-0.5,1.4-0.7,2.3-0.7v2.6h-0.1 c-0.5,0-1,0.1-1.5,0.3c-0.4,0.2-0.8,0.4-1.1,0.8s-0.6,0.8-0.7,1.3c-0.2,0.5-0.3,1.1-0.3,1.8V258.1z"></path>
                <path class="label" d="M674.5,246v-2.3h2.6v2.3H674.5z M674.6,258.1v-10.6h2.4v10.6H674.6z"></path>
                <path class="label" d="M686.6,258.1v-1.3c-0.4,0.4-0.8,0.8-1.4,1.1s-1.2,0.4-2,0.4c-0.5,0-1-0.1-1.4-0.2 c-0.5-0.1-0.9-0.3-1.2-0.6c-0.3-0.3-0.6-0.6-0.8-1c-0.2-0.4-0.3-0.9-0.3-1.4v0c0-0.6,0.1-1.1,0.3-1.5c0.2-0.4,0.5-0.8,0.9-1.1 c0.4-0.3,0.8-0.5,1.4-0.6c0.5-0.1,1.1-0.2,1.7-0.2c0.6,0,1.2,0,1.6,0.1s0.9,0.2,1.3,0.3v-0.3c0-0.7-0.2-1.3-0.7-1.7 c-0.4-0.4-1.1-0.6-1.9-0.6c-0.6,0-1.1,0.1-1.6,0.2s-0.9,0.3-1.4,0.5l-0.7-1.9c0.6-0.3,1.2-0.5,1.8-0.6c0.6-0.2,1.4-0.2,2.2-0.2 c1.6,0,2.7,0.4,3.5,1.2c0.8,0.8,1.1,1.9,1.1,3.3v6.3H686.6z M686.7,253.7c-0.3-0.1-0.7-0.2-1.1-0.3c-0.4-0.1-0.9-0.1-1.3-0.1 c-0.8,0-1.4,0.1-1.8,0.4s-0.6,0.7-0.6,1.3v0c0,0.5,0.2,0.9,0.6,1.2c0.4,0.3,0.9,0.4,1.5,0.4c0.4,0,0.8-0.1,1.1-0.2 c0.3-0.1,0.6-0.3,0.9-0.5c0.3-0.2,0.4-0.4,0.6-0.7s0.2-0.6,0.2-0.9V253.7z"></path>
              </g>
            </g>
          </a>
          <a href="." id="Iraq" name="iraq" aria-label="Map region Iraq" class="overlay-group loaded bounced" data-region="iraq">
            <path id="iraq" class="country" d="M686.3,300l6.2,18.5l-3.2,1.4l2.1,4.6l5.4-2.3l-1.9,3.8l25.2,4.3l20,10.5l4.8,3.3l13.8,5.2 l54.7,40.4l35.7,3.8c0,0,7.1,1.9,15.7-15.7c0,0,4.3-16.2,22.8-0.5l4.4,3.8l-4.9-11.4l7.1,3.8l-2.9-6.2l-6.7-4.3l1-10.9l-8.3,0.5 v-8.2l4.6-10l-6.8-7.5l-1.4-6.1l-3.2-0.7h-4.3l-12.5-8.6l-9.6-2.9l-0.4-3.2l2.9-3.2l-6.4-7.5l-6.8-3.6l-3.9-5l1.8-3.2l-2.1-6.1 l2.1-4.3l3.2,1.1v-2.9l5.4-6.4l3.2-0.4l2.1-6.4l-3.6-5.4l8.2-2.9l-5.4-3.6l-8.9-0.4l-6.4-5.4l-3.6-6.8l-4.3-6.1l-5.4-7.1l-2.5-2.5 l-7.5,2.9l-2.5-5.4l-5-0.7l-5.7,1.4l-12.5-1.4H772l-6.1,6.4h-3.6l-10,9.3l-11.8,2.1l-1.8,9.6l3.6,5.7c0,0-2.5,3.6-3.2,8.9 c-0.7,5.4,0,13.6,0,13.6l-2.5,2.1l-2.5,6.1l-7.1,1.1L686.3,300z"></path>
            <ellipse id="iraq-shadow" class="shadow" cx="785.5" cy="322.7" rx="8.1" ry="1.7"></ellipse>
            <path id="iraq-pin" class="pushpin" d="M777.4,293.5c-4.6,4.7-4.6,12.4,0,17.2l7.7,7.9c0.4,0.4,1,0.4,1.3,0l7.7-7.9 c4.6-4.7,4.6-12.4,0-17.2C789.6,288.7,782.1,288.7,777.4,293.5z"></path>
            <g id="iraq-label">
              <g>
                <path class="label" d="M768.4,267.8v14H766v-14H768.4z"></path>
                <path class="label" d="M774.3,281.8h-2.4v-10.6h2.4v2.4c0.3-0.8,0.8-1.4,1.4-1.9c0.6-0.5,1.4-0.7,2.3-0.7v2.6h-0.1 c-0.5,0-1,0.1-1.5,0.3c-0.4,0.2-0.8,0.4-1.1,0.8c-0.3,0.3-0.6,0.8-0.7,1.3c-0.2,0.5-0.3,1.1-0.3,1.8V281.8z"></path>
                <path class="label" d="M786.1,281.8v-1.3c-0.4,0.4-0.8,0.8-1.4,1.1c-0.6,0.3-1.2,0.4-2,0.4c-0.5,0-1-0.1-1.4-0.2 c-0.5-0.1-0.9-0.3-1.2-0.6c-0.3-0.3-0.6-0.6-0.8-1c-0.2-0.4-0.3-0.9-0.3-1.4v0c0-0.6,0.1-1.1,0.3-1.5c0.2-0.4,0.5-0.8,0.9-1.1 c0.4-0.3,0.8-0.5,1.4-0.6c0.5-0.1,1.1-0.2,1.7-0.2c0.6,0,1.2,0,1.6,0.1c0.4,0.1,0.9,0.2,1.3,0.3v-0.3c0-0.7-0.2-1.3-0.7-1.7 c-0.4-0.4-1.1-0.6-1.9-0.6c-0.6,0-1.1,0.1-1.6,0.2s-0.9,0.3-1.4,0.5l-0.7-1.9c0.6-0.3,1.2-0.5,1.8-0.6c0.6-0.2,1.4-0.2,2.2-0.2 c1.6,0,2.7,0.4,3.5,1.2c0.8,0.8,1.1,1.9,1.1,3.3v6.3H786.1z M786.2,277.3c-0.3-0.1-0.7-0.2-1.1-0.3c-0.4-0.1-0.9-0.1-1.3-0.1 c-0.8,0-1.4,0.1-1.8,0.4s-0.6,0.7-0.6,1.3v0c0,0.5,0.2,0.9,0.6,1.2c0.4,0.3,0.9,0.4,1.5,0.4c0.4,0,0.8-0.1,1.1-0.2 s0.6-0.3,0.9-0.5c0.3-0.2,0.4-0.4,0.6-0.7c0.1-0.3,0.2-0.6,0.2-0.9V277.3z"></path>
                <path class="label" d="M799.3,285v-5c-0.4,0.5-0.9,1-1.4,1.4c-0.6,0.4-1.3,0.6-2.1,0.6c-0.6,0-1.2-0.1-1.8-0.4 c-0.6-0.2-1.1-0.6-1.6-1.1s-0.8-1-1.1-1.7c-0.3-0.7-0.4-1.5-0.4-2.3s0.1-1.7,0.4-2.3c0.3-0.7,0.6-1.3,1.1-1.7 c0.5-0.5,1-0.8,1.6-1.1s1.2-0.4,1.8-0.4c0.9,0,1.6,0.2,2.2,0.6s1.1,0.8,1.4,1.3v-1.6h2.4V285H799.3z M799.1,275.1 c-0.2-0.4-0.4-0.8-0.7-1.1s-0.6-0.5-1-0.7c-0.4-0.2-0.8-0.2-1.2-0.2c-0.4,0-0.8,0.1-1.2,0.2c-0.4,0.2-0.7,0.4-1,0.7 c-0.3,0.3-0.5,0.7-0.7,1.1s-0.2,0.9-0.2,1.4c0,0.5,0.1,1,0.2,1.4s0.4,0.8,0.7,1.1c0.3,0.3,0.6,0.5,1,0.7c0.4,0.2,0.8,0.2,1.2,0.2 c0.4,0,0.8-0.1,1.2-0.2s0.7-0.4,1-0.7c0.3-0.3,0.5-0.7,0.7-1.1s0.2-0.9,0.2-1.4C799.4,276,799.3,275.5,799.1,275.1z"></path>
              </g>
              <g>
                <path class="label" d="M768.4,267.8v14H766v-14H768.4z"></path>
                <path class="label" d="M774.3,281.8h-2.4v-10.6h2.4v2.4c0.3-0.8,0.8-1.4,1.4-1.9c0.6-0.5,1.4-0.7,2.3-0.7v2.6h-0.1 c-0.5,0-1,0.1-1.5,0.3c-0.4,0.2-0.8,0.4-1.1,0.8c-0.3,0.3-0.6,0.8-0.7,1.3c-0.2,0.5-0.3,1.1-0.3,1.8V281.8z"></path>
                <path class="label" d="M786.1,281.8v-1.3c-0.4,0.4-0.8,0.8-1.4,1.1c-0.6,0.3-1.2,0.4-2,0.4c-0.5,0-1-0.1-1.4-0.2 c-0.5-0.1-0.9-0.3-1.2-0.6c-0.3-0.3-0.6-0.6-0.8-1c-0.2-0.4-0.3-0.9-0.3-1.4v0c0-0.6,0.1-1.1,0.3-1.5c0.2-0.4,0.5-0.8,0.9-1.1 c0.4-0.3,0.8-0.5,1.4-0.6c0.5-0.1,1.1-0.2,1.7-0.2c0.6,0,1.2,0,1.6,0.1c0.4,0.1,0.9,0.2,1.3,0.3v-0.3c0-0.7-0.2-1.3-0.7-1.7 c-0.4-0.4-1.1-0.6-1.9-0.6c-0.6,0-1.1,0.1-1.6,0.2s-0.9,0.3-1.4,0.5l-0.7-1.9c0.6-0.3,1.2-0.5,1.8-0.6c0.6-0.2,1.4-0.2,2.2-0.2 c1.6,0,2.7,0.4,3.5,1.2c0.8,0.8,1.1,1.9,1.1,3.3v6.3H786.1z M786.2,277.3c-0.3-0.1-0.7-0.2-1.1-0.3c-0.4-0.1-0.9-0.1-1.3-0.1 c-0.8,0-1.4,0.1-1.8,0.4s-0.6,0.7-0.6,1.3v0c0,0.5,0.2,0.9,0.6,1.2c0.4,0.3,0.9,0.4,1.5,0.4c0.4,0,0.8-0.1,1.1-0.2 s0.6-0.3,0.9-0.5c0.3-0.2,0.4-0.4,0.6-0.7c0.1-0.3,0.2-0.6,0.2-0.9V277.3z"></path>
                <path class="label" d="M799.3,285v-5c-0.4,0.5-0.9,1-1.4,1.4c-0.6,0.4-1.3,0.6-2.1,0.6c-0.6,0-1.2-0.1-1.8-0.4 c-0.6-0.2-1.1-0.6-1.6-1.1s-0.8-1-1.1-1.7c-0.3-0.7-0.4-1.5-0.4-2.3s0.1-1.7,0.4-2.3c0.3-0.7,0.6-1.3,1.1-1.7 c0.5-0.5,1-0.8,1.6-1.1s1.2-0.4,1.8-0.4c0.9,0,1.6,0.2,2.2,0.6s1.1,0.8,1.4,1.3v-1.6h2.4V285H799.3z M799.1,275.1 c-0.2-0.4-0.4-0.8-0.7-1.1s-0.6-0.5-1-0.7c-0.4-0.2-0.8-0.2-1.2-0.2c-0.4,0-0.8,0.1-1.2,0.2c-0.4,0.2-0.7,0.4-1,0.7 c-0.3,0.3-0.5,0.7-0.7,1.1s-0.2,0.9-0.2,1.4c0,0.5,0.1,1,0.2,1.4s0.4,0.8,0.7,1.1c0.3,0.3,0.6,0.5,1,0.7c0.4,0.2,0.8,0.2,1.2,0.2 c0.4,0,0.8-0.1,1.2-0.2s0.7-0.4,1-0.7c0.3-0.3,0.5-0.7,0.7-1.1s0.2-0.9,0.2-1.4C799.4,276,799.3,275.5,799.1,275.1z"></path>
              </g>
            </g>
          </a>
          <a href="." id="Iran" name="iran" aria-label="Map region Iran" class="overlay-group loaded bounced" data-region="iran">
            <path id="iran" class="country" d="M893.5,373l-2.9-6.2l-6.7-4.3l1-10.9l-8.3,0.5v-8.2l4.6-10l-6.8-7.5l-1.4-6.1l-3.2-0.7h-4.3 l-12.5-8.6l-9.6-2.9l-0.4-3.2l2.9-3.2l-6.4-7.5l-6.8-3.6l-3.9-5l1.8-3.2l-2.1-6.1l2.1-4.3l3.2,1.1v-2.9l5.4-6.4l3.2-0.4l2.1-6.4 l-3.6-5.4l8.2-2.9l-5.4-3.6l-8.9-0.4l-6.4-5.4l-3.6-6.8l-4.3-6.1l-5.4-7.1l-2.5-2.5l2.5-1.8l-4.3-3.9v-3.6l-2.5-3.9l-6.1-1.8 l4.3-5.4l2.5-3.6l-4.6-0.4l-0.7-10.3l-2.9-7.1l-1.4-5h5l3.6-6.8l2.9-2.1l4.3,2.9l0.5,0.5l3.9,5l6.4,5.4l5.7,4.3l9.6,2.1h8.9 l6.8-1.1l2.9-5.4l3.2-0.4l5.4-4.6l5-2.9l11.4-3.2l7.5,5.7l-3.9,1.4l3.2,4.3l-1.8,3.6l-5.7,1.4l6.1,3.9l6.4,5.4l3.2,2.5l2.5-1.1 c0,0-0.7,19.6,15,21.8l8.9-0.4l5.7,2.1l3.2,4.3c0,0,11.4,10.7,23.2,10l10,2.9l14.6-3.2l12.1-4.3c0,0,4.3-1.1,6.8,1.8l7.1,0.4 c0,0,8.6,4.6,5-11.4l3.9-0.7l3.9-2.1h5l2.9-2.9l2.1-3.9c0,0,9.6-10.7,25.7-6.4l5.7-0.4l2.1-3.9l4.6,0.4l10,2.1l2.5-3.6l3.9,3.9 l-0.7,2.5l4.3,2.5l4.3-1.8l4.3,2.9h5l1.1,2.9h6.8l5.7-0.7l7.8,4.3l3.9,0.4l2.1,5.7c0,0,2.9,2.1,14.3,6.1l3.2,5c0,0,2.1,3.6,8.9,3.2 l6.8-0.4c0,0,5-3.9,4.6,6.1l-1.4,3.9l-2.1,4.3l4.6,1.1l-0.7,5.7l1.8,2.9l-3.2,5l-1.1,4.6c0,0,2.1,8.2-8.2,11.8l3.2,4.6l-3.2-0.4 l-5,3.6l2.9,6.8l0.7,6.1l6.1,0.7l-1.1,3.2l-4.3,1.1l-2.9,3.6l2.5,5l1.4,7.8l2.9,7.5l-1.4,9.3l0.7,6.1l14.6,2.5c0,0,6.8-1.1,6.1,3.6 l1.4,6.1l-21.4,23.2l10,10.3l2.5,7.8l9.3,8.6l7.8,2.9c0,0,4.3,1.4,6.4,5.4l5-1.4l-0.4,6.8l1.8,7.5c0,0-5,10.7,0.7,8.9l5.4-0.4 c0,0,3.6-2.1,3.6,5l-2.1,7.8l-6.1-0.4l-10.3,3.2c0,0-4.3-0.4-3.6,5.7c0,0-7.1-4.6-9.6,0.4l1.8,9.3c0,0-1.8,3.2-3.9,2.9l-2.1,9.6 c0,0-4.6,6.4-11.4,0.7l-8.2-2.5l-5.4-2.9l-11.4,1.4l-9.3-2.1l-10,1.1l-10.3-3.9l-8.9,0.4l-9.3-2.5c0,0-9.2-0.2-13.5-14.6l-2.2-10 c0,0-6.4-15.3-21-6.8l-7.1,4.3l-5,3.9l-9.3,5.7l-7.1,0.4l-12.5-5.4c0,0-13.2,0.4-15.7-5.7l-14.3-6.4l-1.8-8.2c0,0-6.4,0-9.6-3.2 c0,0-22.1,3.2-22.1-15.7l-3.6-13.2l-7.1-7.5l-11.1-9.6c0,0,2.1-14.6-11.8-1.8l-4.6-2.1l-8.9-4.6l-5.4,0.7c0,0,6.8,2.5,1.4,6.8 l-4.3,2.1l-3.9-2.1l-2.9-5.7l-7.1-3.9l2.1-10.7l-8.2,0.7l0.7-8.2"></path>
            <ellipse id="iran-shadow" class="shadow" cx="1022.5" cy="339.1" rx="8.1" ry="1.7"></ellipse>
            <path id="iran-pin" class="pushpin" d="M1014.4,309.9c-4.6,4.7-4.6,12.4,0,17.2l7.7,7.9c0.4,0.4,1,0.4,1.3,0l7.7-7.9 c4.6-4.7,4.6-12.4,0-17.2C1026.6,305.2,1019,305.2,1014.4,309.9z"></path>
            <g id="iran-label">
              <g>
                <path class="label" d="M1008.6,284.6v14h-2.4v-14H1008.6z"></path>
                <path class="label" d="M1014.5,298.6h-2.4v-10.6h2.4v2.4c0.3-0.8,0.8-1.4,1.4-1.9c0.6-0.5,1.4-0.7,2.3-0.7v2.6h-0.1 c-0.5,0-1,0.1-1.5,0.3c-0.4,0.2-0.8,0.4-1.1,0.8c-0.3,0.3-0.6,0.8-0.7,1.3c-0.2,0.5-0.3,1.1-0.3,1.8V298.6z"></path>
                <path class="label" d="M1026.3,298.6v-1.3c-0.4,0.4-0.8,0.8-1.4,1.1c-0.6,0.3-1.2,0.4-2,0.4c-0.5,0-1-0.1-1.4-0.2 c-0.5-0.1-0.9-0.3-1.2-0.6c-0.3-0.3-0.6-0.6-0.8-1c-0.2-0.4-0.3-0.9-0.3-1.4v0c0-0.6,0.1-1.1,0.3-1.5c0.2-0.4,0.5-0.8,0.9-1.1 c0.4-0.3,0.8-0.5,1.4-0.6c0.5-0.1,1.1-0.2,1.7-0.2c0.6,0,1.2,0,1.6,0.1c0.4,0.1,0.9,0.2,1.3,0.3v-0.3c0-0.7-0.2-1.3-0.7-1.7 c-0.4-0.4-1.1-0.6-1.9-0.6c-0.6,0-1.1,0.1-1.6,0.2s-0.9,0.3-1.4,0.5l-0.7-1.9c0.6-0.3,1.2-0.5,1.8-0.6c0.6-0.2,1.4-0.2,2.2-0.2 c1.6,0,2.7,0.4,3.5,1.2c0.8,0.8,1.1,1.9,1.1,3.3v6.3H1026.3z M1026.4,294.2c-0.3-0.1-0.7-0.2-1.1-0.3c-0.4-0.1-0.9-0.1-1.3-0.1 c-0.8,0-1.4,0.1-1.8,0.4s-0.6,0.7-0.6,1.3v0c0,0.5,0.2,0.9,0.6,1.2c0.4,0.3,0.9,0.4,1.5,0.4c0.4,0,0.8-0.1,1.1-0.2 s0.6-0.3,0.9-0.5c0.3-0.2,0.4-0.4,0.6-0.7c0.1-0.3,0.2-0.6,0.2-0.9V294.2z"></path>
                <path class="label" d="M1034,298.6h-2.4v-10.6h2.4v1.7c0.2-0.3,0.4-0.5,0.6-0.7s0.4-0.4,0.7-0.6s0.6-0.3,0.9-0.4 c0.3-0.1,0.7-0.2,1.1-0.2c1.2,0,2.1,0.4,2.8,1.1c0.7,0.7,1,1.7,1,3v6.7h-2.4v-6c0-0.8-0.2-1.5-0.6-1.9c-0.4-0.4-0.9-0.7-1.7-0.7 c-0.7,0-1.3,0.2-1.7,0.7c-0.4,0.5-0.7,1.1-0.7,1.9V298.6z"></path>
              </g>
              <g>
                <path class="label" d="M1008.6,284.6v14h-2.4v-14H1008.6z"></path>
                <path class="label" d="M1014.5,298.6h-2.4v-10.6h2.4v2.4c0.3-0.8,0.8-1.4,1.4-1.9c0.6-0.5,1.4-0.7,2.3-0.7v2.6h-0.1 c-0.5,0-1,0.1-1.5,0.3c-0.4,0.2-0.8,0.4-1.1,0.8c-0.3,0.3-0.6,0.8-0.7,1.3c-0.2,0.5-0.3,1.1-0.3,1.8V298.6z"></path>
                <path class="label" d="M1026.3,298.6v-1.3c-0.4,0.4-0.8,0.8-1.4,1.1c-0.6,0.3-1.2,0.4-2,0.4c-0.5,0-1-0.1-1.4-0.2 c-0.5-0.1-0.9-0.3-1.2-0.6c-0.3-0.3-0.6-0.6-0.8-1c-0.2-0.4-0.3-0.9-0.3-1.4v0c0-0.6,0.1-1.1,0.3-1.5c0.2-0.4,0.5-0.8,0.9-1.1 c0.4-0.3,0.8-0.5,1.4-0.6c0.5-0.1,1.1-0.2,1.7-0.2c0.6,0,1.2,0,1.6,0.1c0.4,0.1,0.9,0.2,1.3,0.3v-0.3c0-0.7-0.2-1.3-0.7-1.7 c-0.4-0.4-1.1-0.6-1.9-0.6c-0.6,0-1.1,0.1-1.6,0.2s-0.9,0.3-1.4,0.5l-0.7-1.9c0.6-0.3,1.2-0.5,1.8-0.6c0.6-0.2,1.4-0.2,2.2-0.2 c1.6,0,2.7,0.4,3.5,1.2c0.8,0.8,1.1,1.9,1.1,3.3v6.3H1026.3z M1026.4,294.2c-0.3-0.1-0.7-0.2-1.1-0.3c-0.4-0.1-0.9-0.1-1.3-0.1 c-0.8,0-1.4,0.1-1.8,0.4s-0.6,0.7-0.6,1.3v0c0,0.5,0.2,0.9,0.6,1.2c0.4,0.3,0.9,0.4,1.5,0.4c0.4,0,0.8-0.1,1.1-0.2 s0.6-0.3,0.9-0.5c0.3-0.2,0.4-0.4,0.6-0.7c0.1-0.3,0.2-0.6,0.2-0.9V294.2z"></path>
                <path class="label" d="M1034,298.6h-2.4v-10.6h2.4v1.7c0.2-0.3,0.4-0.5,0.6-0.7s0.4-0.4,0.7-0.6s0.6-0.3,0.9-0.4 c0.3-0.1,0.7-0.2,1.1-0.2c1.2,0,2.1,0.4,2.8,1.1c0.7,0.7,1,1.7,1,3v6.7h-2.4v-6c0-0.8-0.2-1.5-0.6-1.9c-0.4-0.4-0.9-0.7-1.7-0.7 c-0.7,0-1.3,0.2-1.7,0.7c-0.4,0.5-0.7,1.1-0.7,1.9V298.6z"></path>
              </g>
            </g>
          </a>
          <a href="." id="Afghanistan" name="afghanistan" aria-label="Map region Afghanistan" class="overlay-group loaded bounced" data-region="afghanistan">
            <path id="afghanistan_1_" class="country" d="M1232,232.3c0,0,2.9-1,1.5-6c0,0,2.1-5.3,3-6.3c0,0,1.1-1.3,0.1-4.3 c0,0,0.1-1.6,1.5-2.2c0,0,6.4-3.8,13.8-2.4l1.4-1.1c0,0,0-5.8,4.1-5.9c0,0,2.2-0.4,2.6,1.5l2.3,0.5c0,0,4-0.1,6,2.7l2.3,0.1 c0,0,3-1.6,4.2-0.5c0,0,7.4-2.5,9.1,0.3c1.7,2.8,3.3,2.6,3.3,2.6s3.9-3,9.6,0.4c0,0,1.6-0.2,1.1,2.7c0,0,3.3-0.4,3.6,2.8l3.3-1.4 c0,0-0.5-2.3,2.9-2.5l4.1-1.6c0,0-0.3-2.6,6.6-2.9c0,0,4.8,0.4,6.4,4.5l1.1-0.4c0,0-2.5-4.9,1.8-7.9c0,0,0.3-2.6,5.9-1.5l2.8-0.7 c0,0,2.7,0.2,3,1l1.8,0.7c0,0,4.2-1.5,0.7-3.7c0,0-3.4-4.2,0.9-5.3l4.1-3.6c0,0,1-3.4,1.7-3.4c0.8,0,0.8,0,0.8,0s5.3-6.6,10.8-3.4 c0,0,2.8,1.3,2.8,2.2c0,0,6.6-1,2.3,8.7c0,0,7.1-4.2,5.9,4l-1.7,5.1l0.4,2.7l-0.8,2.6c0,0,1,2-0.7,5.4l0.3,2.3l1.4,3.4 c0,0,1.2,3.9,5.2,0.2l3.5-2.6c0,0,3.9-3.4,8.1-2.9l2.2-0.4c0,0,2.2-4.8,4.3-4.8l3.6-2c0,0,3.9-4.5,8.8-3.3l2.7,0.9 c0,0,4.9-1.2,4.7,3.4l5.2-1.1c0,0,0.9-3,5.9-1.6l3.1,0.5c0,0,7-0.8,7.1,4.6c0,0,1.6,3-4.8,1.4l-2.8,0.5l-0.4,0.8 c0,0,2.6,0.1,1.8,3.8c0,0-2,2.9-3.4,0.4l-2,1c0,0-1.2,1.5-3.5,1.2c0,0,0.7,2.9-6.2,0.3l-4-0.5l-4.7,0.5l-5.1,0.1l-3.1,0.5l-6.4,0.4 c0,0-1.5-0.2-2.3,1.2l-4.8,0.8c0,0-0.2,2.6-2.9,3.5l-2.5,0.9l-1.2,1.1c0,0,1.2,4.1-4.7,2c0,0-2.1,3.1-3.8,3.1l-3.8,3.3 c0,0,3,0.7,3.1,2.1c0,0,3.3,2.3,3.1,7.2c0,0,2.5,1.5,2.1,4.6l-1.6,2.8c0,0,5,1,0.9,4.6l-0.9,0.9c0,0-0.3,2.9-5.5,5l-2.8,3.8 c0,0-0.8,1.4-2.3,3.3c0,0,1,1.5,2.6,2.5c0,0,1.3,1.4-0.5,3.4c0,0,1,6.7-4.6,7.1l-3.4,0.8l-4.1,0.4l-2.7,0.3l-9-2.5l-0.2,0.9 l1.6,2.9l1.7,0.1c0,0,2.8,0.1,2.5,5.5l1.2,1.2c0,0,3.6,2,1.5,4.1l-2,2.3c0,0-3.1,1.7-3.7,1.7s-3.1,3.8-6.4,2.3c0,0-4.9-1-3.8,2.3 c0,0,1.6,3.4-1.3,3.7c0,0,1.2,1.5,0.2,3.3s-3.1,4.3-3.1,4.3l0.2,6.1c0,0,2.7,5.8-1.2,6.5l-1.8,3.7c0,0-3.9,4.8-8.9,2.8l-2.5-2.8 l-1.4,0.9l-7-1.5l-3,3l-2.8,0.5l-1.6,1.5c0,0,3.7,2.8-0.7,4.9l-5.4,2.1c0,0-7.3,2.5-9.9-1.1l-3.4,1.6c0,0-0.9,5-6.3,6l-1.8,6.3 c0,0,3.6,3.7,0.3,8.4l-1.1,2.5c0,0,5.1,2.6-0.8,7.1l-20.9,6.1c0,0-5.4,2-12.3,0.1c0,0-5.5-0.4-6.6,2.4c0,0-0.1,3.4-5.1,0.7 l-7.1-1.2l-8.3,0.7l-9.1,1.1c0,0-8.5,0.8-11.3-1.8l-14.1-5.4l-11.3-4.6l21.4-23.2l-1.4-6.1c0.7-4.6-6.1-3.6-6.1-3.6l-14.6-2.5 l-0.7-6.1l1.4-9.3l-2.9-7.5l-1.4-7.8l-2.5-5l2.9-3.6l4.3-1.1l1.1-3.2l-6.1-0.7l-0.7-6.1l-2.9-6.8l5-3.6l3.2,0.4l-3.2-4.6 c10.3-3.6,8.2-11.8,8.2-11.8l1.1-4.6l3.2-5l-1.8-2.9c0,0,0.5-7.7,5.1-3.5c0,0,2.1,3.5,6.3,3.1h2.6c0,0,3.3-2.2,5.2,1.7l3.9,2.7 c0,0,1-1.7,3.7-0.2c0,0,2.2,0.8,4.1-0.7l4.7-3.4l-0.1-1.3c0,0-0.7-3,1.4-3.5c0,0-2.9-2.9,0.3-5l4.1-0.3l10.8-3.5l3.5-1.4 L1232,232.3z"></path>
            <ellipse id="afghanistan-shadow" class="shadow" cx="1252" cy="327.8" rx="8.1" ry="1.7"></ellipse>
            <path id="afghanistan-pin" class="pushpin" d="M1243.9,298.6c-4.6,4.7-4.6,12.4,0,17.2l7.7,7.9c0.4,0.4,1,0.4,1.3,0l7.7-7.9 c4.6-4.7,4.6-12.4,0-17.2C1256.1,293.8,1248.6,293.8,1243.9,298.6z"></path>
            <g id="afghanistan-label">
              <g>
                <path class="label" d="M1206.3,287.1h-2.6l-1.4-3.4h-6.6l-1.4,3.4h-2.5l6.2-14.1h2.3L1206.3,287.1z M1198.9,275.9l-2.4,5.6h4.8 L1198.9,275.9z"></path>
                <path class="label" d="M1213.7,276.6v2h-2.8v8.5h-2.4v-8.5h-1.3v-2h1.3v-0.8c0-1.2,0.3-2,0.8-2.6c0.6-0.6,1.4-0.8,2.4-0.8 c0.4,0,0.8,0,1.1,0.1c0.3,0.1,0.6,0.1,0.9,0.2v2c-0.2-0.1-0.5-0.1-0.7-0.2s-0.5-0.1-0.7-0.1c-0.9,0-1.4,0.5-1.4,1.6v0.6H1213.7z"></path>
                <path class="label" d="M1224.2,289c-1,0.9-2.4,1.3-4.2,1.3c-1.8,0-3.3-0.4-4.7-1.3l0.9-1.8c0.6,0.3,1.1,0.6,1.8,0.8 c0.6,0.2,1.3,0.3,2,0.3c1.1,0,1.9-0.3,2.5-0.8s0.9-1.4,0.9-2.4v-0.8c-0.4,0.6-1,1-1.5,1.4c-0.6,0.4-1.3,0.5-2.2,0.5 c-0.6,0-1.2-0.1-1.8-0.3s-1.1-0.5-1.5-1c-0.4-0.4-0.8-0.9-1.1-1.6s-0.4-1.3-0.4-2.1s0.1-1.5,0.4-2.1c0.3-0.6,0.6-1.1,1.1-1.6 c0.4-0.4,1-0.8,1.5-1c0.6-0.2,1.2-0.3,1.8-0.3c0.9,0,1.6,0.2,2.2,0.5c0.6,0.4,1.1,0.8,1.5,1.3v-1.6h2.4v8.4 C1225.7,286.8,1225.2,288.1,1224.2,289z M1223,280.1c-0.2-0.4-0.4-0.7-0.7-0.9c-0.3-0.3-0.6-0.4-1-0.6c-0.4-0.1-0.8-0.2-1.2-0.2 c-0.4,0-0.8,0.1-1.2,0.2c-0.4,0.1-0.7,0.3-1,0.6c-0.3,0.3-0.5,0.6-0.6,0.9s-0.2,0.8-0.2,1.2c0,0.4,0.1,0.8,0.2,1.2 c0.2,0.4,0.4,0.7,0.6,0.9c0.3,0.3,0.6,0.5,1,0.6c0.4,0.1,0.8,0.2,1.2,0.2c0.4,0,0.8-0.1,1.2-0.2c0.4-0.1,0.7-0.3,1-0.6 c0.3-0.3,0.5-0.6,0.7-0.9s0.2-0.7,0.2-1.2C1223.3,280.8,1223.2,280.4,1223,280.1z"></path>
                <path class="label" d="M1231.1,287.1h-2.4v-14.6h2.4v5.7c0.2-0.3,0.4-0.5,0.6-0.7s0.4-0.4,0.7-0.6s0.6-0.3,0.9-0.4 c0.3-0.1,0.7-0.2,1.1-0.2c1.2,0,2.1,0.4,2.8,1.1c0.7,0.7,1,1.7,1,3v6.7h-2.4v-6c0-0.8-0.2-1.5-0.6-1.9c-0.4-0.4-0.9-0.7-1.7-0.7 c-0.7,0-1.3,0.2-1.7,0.7c-0.4,0.5-0.7,1.1-0.7,1.9V287.1z"></path>
                <path class="label" d="M1247.6,287.1v-1.3c-0.4,0.4-0.8,0.8-1.4,1.1c-0.6,0.3-1.2,0.4-2,0.4c-0.5,0-1-0.1-1.4-0.2 c-0.5-0.1-0.9-0.3-1.2-0.6c-0.3-0.3-0.6-0.6-0.8-1c-0.2-0.4-0.3-0.9-0.3-1.4v0c0-0.6,0.1-1.1,0.3-1.5c0.2-0.4,0.5-0.8,0.9-1.1 c0.4-0.3,0.8-0.5,1.4-0.6c0.5-0.1,1.1-0.2,1.7-0.2c0.6,0,1.2,0,1.6,0.1c0.4,0.1,0.9,0.2,1.3,0.3v-0.3c0-0.7-0.2-1.3-0.7-1.7 c-0.4-0.4-1.1-0.6-1.9-0.6c-0.6,0-1.1,0.1-1.6,0.2s-0.9,0.3-1.4,0.5l-0.7-1.9c0.6-0.3,1.2-0.5,1.8-0.6c0.6-0.2,1.4-0.2,2.2-0.2 c1.6,0,2.7,0.4,3.5,1.2c0.8,0.8,1.1,1.9,1.1,3.3v6.3H1247.6z M1247.6,282.6c-0.3-0.1-0.7-0.2-1.1-0.3c-0.4-0.1-0.9-0.1-1.3-0.1 c-0.8,0-1.4,0.1-1.8,0.4s-0.6,0.7-0.6,1.3v0c0,0.5,0.2,0.9,0.6,1.2c0.4,0.3,0.9,0.4,1.5,0.4c0.4,0,0.8-0.1,1.1-0.2 s0.6-0.3,0.9-0.5c0.3-0.2,0.4-0.4,0.6-0.7c0.1-0.3,0.2-0.6,0.2-0.9V282.6z"></path>
                <path class="label" d="M1255.3,287.1h-2.4v-10.6h2.4v1.7c0.2-0.3,0.4-0.5,0.6-0.7s0.4-0.4,0.7-0.6s0.6-0.3,0.9-0.4 c0.3-0.1,0.7-0.2,1.1-0.2c1.2,0,2.1,0.4,2.8,1.1c0.7,0.7,1,1.7,1,3v6.7h-2.4v-6c0-0.8-0.2-1.5-0.6-1.9c-0.4-0.4-0.9-0.7-1.7-0.7 c-0.7,0-1.3,0.2-1.7,0.7c-0.4,0.5-0.7,1.1-0.7,1.9V287.1z"></path>
                <path class="label" d="M1265.3,274.9v-2.3h2.6v2.3H1265.3z M1265.4,287.1v-10.6h2.4v10.6H1265.4z"></path>
                <path class="label" d="M1278.2,285.4c-0.2,0.4-0.5,0.8-0.8,1s-0.8,0.5-1.2,0.6c-0.5,0.1-1,0.2-1.5,0.2c-0.8,0-1.5-0.1-2.3-0.4 c-0.8-0.3-1.5-0.7-2.2-1.2l1.1-1.6c0.6,0.4,1.2,0.8,1.8,1c0.6,0.2,1.2,0.3,1.7,0.3c0.5,0,0.9-0.1,1.2-0.3 c0.3-0.2,0.4-0.5,0.4-0.8v0c0-0.2-0.1-0.4-0.2-0.5s-0.3-0.3-0.5-0.4s-0.5-0.2-0.8-0.3c-0.3-0.1-0.6-0.2-0.9-0.3 c-0.4-0.1-0.8-0.3-1.2-0.4c-0.4-0.1-0.7-0.3-1.1-0.6c-0.3-0.2-0.6-0.5-0.8-0.9s-0.3-0.8-0.3-1.3v0c0-0.5,0.1-0.9,0.3-1.3 c0.2-0.4,0.5-0.7,0.8-1s0.7-0.5,1.2-0.6c0.5-0.1,1-0.2,1.5-0.2c0.7,0,1.3,0.1,2,0.3c0.7,0.2,1.3,0.5,1.9,0.9l-1,1.7 c-0.5-0.3-1-0.5-1.5-0.7c-0.5-0.2-1-0.3-1.4-0.3c-0.5,0-0.8,0.1-1.1,0.3c-0.3,0.2-0.4,0.5-0.4,0.8v0c0,0.2,0.1,0.3,0.2,0.5 c0.1,0.1,0.3,0.3,0.5,0.4s0.5,0.2,0.8,0.3c0.3,0.1,0.6,0.2,0.9,0.3c0.4,0.1,0.8,0.3,1.2,0.4s0.7,0.4,1.1,0.6 c0.3,0.2,0.6,0.5,0.8,0.9s0.3,0.7,0.3,1.2v0C1278.5,284.5,1278.4,285,1278.2,285.4z"></path>
                <path class="label" d="M1283.7,283.8c0,0.5,0.1,0.8,0.3,1c0.2,0.2,0.5,0.3,1,0.3c0.5,0,1-0.1,1.5-0.4v2c-0.3,0.2-0.6,0.3-1,0.4 s-0.7,0.1-1.2,0.1c-0.4,0-0.8-0.1-1.2-0.2c-0.4-0.1-0.7-0.3-1-0.5c-0.3-0.2-0.5-0.6-0.6-1c-0.1-0.4-0.2-0.9-0.2-1.5v-5.6h-1.3 v-2.1h1.3v-2.9h2.4v2.9h2.8v2.1h-2.8V283.8z"></path>
                <path class="label" d="M1295.4,287.1v-1.3c-0.4,0.4-0.8,0.8-1.4,1.1c-0.6,0.3-1.2,0.4-2,0.4c-0.5,0-1-0.1-1.4-0.2 c-0.5-0.1-0.9-0.3-1.2-0.6c-0.3-0.3-0.6-0.6-0.8-1c-0.2-0.4-0.3-0.9-0.3-1.4v0c0-0.6,0.1-1.1,0.3-1.5c0.2-0.4,0.5-0.8,0.9-1.1 c0.4-0.3,0.8-0.5,1.4-0.6c0.5-0.1,1.1-0.2,1.7-0.2c0.6,0,1.2,0,1.6,0.1c0.4,0.1,0.9,0.2,1.3,0.3v-0.3c0-0.7-0.2-1.3-0.7-1.7 c-0.4-0.4-1.1-0.6-1.9-0.6c-0.6,0-1.1,0.1-1.6,0.2s-0.9,0.3-1.4,0.5l-0.7-1.9c0.6-0.3,1.2-0.5,1.8-0.6c0.6-0.2,1.4-0.2,2.2-0.2 c1.6,0,2.7,0.4,3.5,1.2c0.8,0.8,1.1,1.9,1.1,3.3v6.3H1295.4z M1295.5,282.6c-0.3-0.1-0.7-0.2-1.1-0.3c-0.4-0.1-0.9-0.1-1.3-0.1 c-0.8,0-1.4,0.1-1.8,0.4s-0.6,0.7-0.6,1.3v0c0,0.5,0.2,0.9,0.6,1.2c0.4,0.3,0.9,0.4,1.5,0.4c0.4,0,0.8-0.1,1.1-0.2 s0.6-0.3,0.9-0.5c0.3-0.2,0.4-0.4,0.6-0.7c0.1-0.3,0.2-0.6,0.2-0.9V282.6z"></path>
                <path class="label" d="M1303.1,287.1h-2.4v-10.6h2.4v1.7c0.2-0.3,0.4-0.5,0.6-0.7s0.4-0.4,0.7-0.6s0.6-0.3,0.9-0.4 c0.3-0.1,0.7-0.2,1.1-0.2c1.2,0,2.1,0.4,2.8,1.1s1,1.7,1,3v6.7h-2.4v-6c0-0.8-0.2-1.5-0.6-1.9c-0.4-0.4-0.9-0.7-1.7-0.7 c-0.7,0-1.3,0.2-1.7,0.7s-0.7,1.1-0.7,1.9V287.1z"></path>
              </g>
              <g>
                <path class="label" d="M1206.3,287.1h-2.6l-1.4-3.4h-6.6l-1.4,3.4h-2.5l6.2-14.1h2.3L1206.3,287.1z M1198.9,275.9l-2.4,5.6h4.8 L1198.9,275.9z"></path>
                <path class="label" d="M1213.7,276.6v2h-2.8v8.5h-2.4v-8.5h-1.3v-2h1.3v-0.8c0-1.2,0.3-2,0.8-2.6c0.6-0.6,1.4-0.8,2.4-0.8 c0.4,0,0.8,0,1.1,0.1c0.3,0.1,0.6,0.1,0.9,0.2v2c-0.2-0.1-0.5-0.1-0.7-0.2s-0.5-0.1-0.7-0.1c-0.9,0-1.4,0.5-1.4,1.6v0.6H1213.7z"></path>
                <path class="label" d="M1224.2,289c-1,0.9-2.4,1.3-4.2,1.3c-1.8,0-3.3-0.4-4.7-1.3l0.9-1.8c0.6,0.3,1.1,0.6,1.8,0.8 c0.6,0.2,1.3,0.3,2,0.3c1.1,0,1.9-0.3,2.5-0.8s0.9-1.4,0.9-2.4v-0.8c-0.4,0.6-1,1-1.5,1.4c-0.6,0.4-1.3,0.5-2.2,0.5 c-0.6,0-1.2-0.1-1.8-0.3s-1.1-0.5-1.5-1c-0.4-0.4-0.8-0.9-1.1-1.6s-0.4-1.3-0.4-2.1s0.1-1.5,0.4-2.1c0.3-0.6,0.6-1.1,1.1-1.6 c0.4-0.4,1-0.8,1.5-1c0.6-0.2,1.2-0.3,1.8-0.3c0.9,0,1.6,0.2,2.2,0.5c0.6,0.4,1.1,0.8,1.5,1.3v-1.6h2.4v8.4 C1225.7,286.8,1225.2,288.1,1224.2,289z M1223,280.1c-0.2-0.4-0.4-0.7-0.7-0.9c-0.3-0.3-0.6-0.4-1-0.6c-0.4-0.1-0.8-0.2-1.2-0.2 c-0.4,0-0.8,0.1-1.2,0.2c-0.4,0.1-0.7,0.3-1,0.6c-0.3,0.3-0.5,0.6-0.6,0.9s-0.2,0.8-0.2,1.2c0,0.4,0.1,0.8,0.2,1.2 c0.2,0.4,0.4,0.7,0.6,0.9c0.3,0.3,0.6,0.5,1,0.6c0.4,0.1,0.8,0.2,1.2,0.2c0.4,0,0.8-0.1,1.2-0.2c0.4-0.1,0.7-0.3,1-0.6 c0.3-0.3,0.5-0.6,0.7-0.9s0.2-0.7,0.2-1.2C1223.3,280.8,1223.2,280.4,1223,280.1z"></path>
                <path class="label" d="M1231.1,287.1h-2.4v-14.6h2.4v5.7c0.2-0.3,0.4-0.5,0.6-0.7s0.4-0.4,0.7-0.6s0.6-0.3,0.9-0.4 c0.3-0.1,0.7-0.2,1.1-0.2c1.2,0,2.1,0.4,2.8,1.1c0.7,0.7,1,1.7,1,3v6.7h-2.4v-6c0-0.8-0.2-1.5-0.6-1.9c-0.4-0.4-0.9-0.7-1.7-0.7 c-0.7,0-1.3,0.2-1.7,0.7c-0.4,0.5-0.7,1.1-0.7,1.9V287.1z"></path>
                <path class="label" d="M1247.6,287.1v-1.3c-0.4,0.4-0.8,0.8-1.4,1.1c-0.6,0.3-1.2,0.4-2,0.4c-0.5,0-1-0.1-1.4-0.2 c-0.5-0.1-0.9-0.3-1.2-0.6c-0.3-0.3-0.6-0.6-0.8-1c-0.2-0.4-0.3-0.9-0.3-1.4v0c0-0.6,0.1-1.1,0.3-1.5c0.2-0.4,0.5-0.8,0.9-1.1 c0.4-0.3,0.8-0.5,1.4-0.6c0.5-0.1,1.1-0.2,1.7-0.2c0.6,0,1.2,0,1.6,0.1c0.4,0.1,0.9,0.2,1.3,0.3v-0.3c0-0.7-0.2-1.3-0.7-1.7 c-0.4-0.4-1.1-0.6-1.9-0.6c-0.6,0-1.1,0.1-1.6,0.2s-0.9,0.3-1.4,0.5l-0.7-1.9c0.6-0.3,1.2-0.5,1.8-0.6c0.6-0.2,1.4-0.2,2.2-0.2 c1.6,0,2.7,0.4,3.5,1.2c0.8,0.8,1.1,1.9,1.1,3.3v6.3H1247.6z M1247.6,282.6c-0.3-0.1-0.7-0.2-1.1-0.3c-0.4-0.1-0.9-0.1-1.3-0.1 c-0.8,0-1.4,0.1-1.8,0.4s-0.6,0.7-0.6,1.3v0c0,0.5,0.2,0.9,0.6,1.2c0.4,0.3,0.9,0.4,1.5,0.4c0.4,0,0.8-0.1,1.1-0.2 s0.6-0.3,0.9-0.5c0.3-0.2,0.4-0.4,0.6-0.7c0.1-0.3,0.2-0.6,0.2-0.9V282.6z"></path>
                <path class="label" d="M1255.3,287.1h-2.4v-10.6h2.4v1.7c0.2-0.3,0.4-0.5,0.6-0.7s0.4-0.4,0.7-0.6s0.6-0.3,0.9-0.4 c0.3-0.1,0.7-0.2,1.1-0.2c1.2,0,2.1,0.4,2.8,1.1c0.7,0.7,1,1.7,1,3v6.7h-2.4v-6c0-0.8-0.2-1.5-0.6-1.9c-0.4-0.4-0.9-0.7-1.7-0.7 c-0.7,0-1.3,0.2-1.7,0.7c-0.4,0.5-0.7,1.1-0.7,1.9V287.1z"></path>
                <path class="label" d="M1265.3,274.9v-2.3h2.6v2.3H1265.3z M1265.4,287.1v-10.6h2.4v10.6H1265.4z"></path>
                <path class="label" d="M1278.2,285.4c-0.2,0.4-0.5,0.8-0.8,1s-0.8,0.5-1.2,0.6c-0.5,0.1-1,0.2-1.5,0.2c-0.8,0-1.5-0.1-2.3-0.4 c-0.8-0.3-1.5-0.7-2.2-1.2l1.1-1.6c0.6,0.4,1.2,0.8,1.8,1c0.6,0.2,1.2,0.3,1.7,0.3c0.5,0,0.9-0.1,1.2-0.3 c0.3-0.2,0.4-0.5,0.4-0.8v0c0-0.2-0.1-0.4-0.2-0.5s-0.3-0.3-0.5-0.4s-0.5-0.2-0.8-0.3c-0.3-0.1-0.6-0.2-0.9-0.3 c-0.4-0.1-0.8-0.3-1.2-0.4c-0.4-0.1-0.7-0.3-1.1-0.6c-0.3-0.2-0.6-0.5-0.8-0.9s-0.3-0.8-0.3-1.3v0c0-0.5,0.1-0.9,0.3-1.3 c0.2-0.4,0.5-0.7,0.8-1s0.7-0.5,1.2-0.6c0.5-0.1,1-0.2,1.5-0.2c0.7,0,1.3,0.1,2,0.3c0.7,0.2,1.3,0.5,1.9,0.9l-1,1.7 c-0.5-0.3-1-0.5-1.5-0.7c-0.5-0.2-1-0.3-1.4-0.3c-0.5,0-0.8,0.1-1.1,0.3c-0.3,0.2-0.4,0.5-0.4,0.8v0c0,0.2,0.1,0.3,0.2,0.5 c0.1,0.1,0.3,0.3,0.5,0.4s0.5,0.2,0.8,0.3c0.3,0.1,0.6,0.2,0.9,0.3c0.4,0.1,0.8,0.3,1.2,0.4s0.7,0.4,1.1,0.6 c0.3,0.2,0.6,0.5,0.8,0.9s0.3,0.7,0.3,1.2v0C1278.5,284.5,1278.4,285,1278.2,285.4z"></path>
                <path class="label" d="M1283.7,283.8c0,0.5,0.1,0.8,0.3,1c0.2,0.2,0.5,0.3,1,0.3c0.5,0,1-0.1,1.5-0.4v2c-0.3,0.2-0.6,0.3-1,0.4 s-0.7,0.1-1.2,0.1c-0.4,0-0.8-0.1-1.2-0.2c-0.4-0.1-0.7-0.3-1-0.5c-0.3-0.2-0.5-0.6-0.6-1c-0.1-0.4-0.2-0.9-0.2-1.5v-5.6h-1.3 v-2.1h1.3v-2.9h2.4v2.9h2.8v2.1h-2.8V283.8z"></path>
                <path class="label" d="M1295.4,287.1v-1.3c-0.4,0.4-0.8,0.8-1.4,1.1c-0.6,0.3-1.2,0.4-2,0.4c-0.5,0-1-0.1-1.4-0.2 c-0.5-0.1-0.9-0.3-1.2-0.6c-0.3-0.3-0.6-0.6-0.8-1c-0.2-0.4-0.3-0.9-0.3-1.4v0c0-0.6,0.1-1.1,0.3-1.5c0.2-0.4,0.5-0.8,0.9-1.1 c0.4-0.3,0.8-0.5,1.4-0.6c0.5-0.1,1.1-0.2,1.7-0.2c0.6,0,1.2,0,1.6,0.1c0.4,0.1,0.9,0.2,1.3,0.3v-0.3c0-0.7-0.2-1.3-0.7-1.7 c-0.4-0.4-1.1-0.6-1.9-0.6c-0.6,0-1.1,0.1-1.6,0.2s-0.9,0.3-1.4,0.5l-0.7-1.9c0.6-0.3,1.2-0.5,1.8-0.6c0.6-0.2,1.4-0.2,2.2-0.2 c1.6,0,2.7,0.4,3.5,1.2c0.8,0.8,1.1,1.9,1.1,3.3v6.3H1295.4z M1295.5,282.6c-0.3-0.1-0.7-0.2-1.1-0.3c-0.4-0.1-0.9-0.1-1.3-0.1 c-0.8,0-1.4,0.1-1.8,0.4s-0.6,0.7-0.6,1.3v0c0,0.5,0.2,0.9,0.6,1.2c0.4,0.3,0.9,0.4,1.5,0.4c0.4,0,0.8-0.1,1.1-0.2 s0.6-0.3,0.9-0.5c0.3-0.2,0.4-0.4,0.6-0.7c0.1-0.3,0.2-0.6,0.2-0.9V282.6z"></path>
                <path class="label" d="M1303.1,287.1h-2.4v-10.6h2.4v1.7c0.2-0.3,0.4-0.5,0.6-0.7s0.4-0.4,0.7-0.6s0.6-0.3,0.9-0.4 c0.3-0.1,0.7-0.2,1.1-0.2c1.2,0,2.1,0.4,2.8,1.1s1,1.7,1,3v6.7h-2.4v-6c0-0.8-0.2-1.5-0.6-1.9c-0.4-0.4-0.9-0.7-1.7-0.7 c-0.7,0-1.3,0.2-1.7,0.7s-0.7,1.1-0.7,1.9V287.1z"></path>
              </g>
            </g>
          </a>
        </svg>